Simulation
nRows=41
nColumns=15
endheader
time  TH_x TH_y TH_z SC_y  SC_z  SC_x  AC_y  AC_z  AC_x  GH_y  GH_z  GH_yy  EL_x  PS_y
0.0  0.000000  0.000000  0.000000  -32.571555359321216  0.7775400441144661  -24.186236156447997  44.690336726361636  39.676525544942635  62.99230250668233  36.4992027957161  28.722810037963278  -27.681426804118043  23.66713575816706  0.000000
0.04  0.000000  0.000000  0.000000  -28.353228678084687  3.808931222827501  -19.625899265122  44.39962726103979  44.40131550726956  58.125356310211046  42.9462182694428  29.097447245352257  -32.57350376279533  23.677527132063396  0.000000
0.08  0.000000  0.000000  0.000000  -32.114099593575006  0.1678102679892054  -23.747008850672138  45.427364885852974  42.39251302082131  63.95197737524106  49.58840738165623  29.079199430654132  -39.417239981473166  24.848045298257826  0.000000
0.12  0.000000  0.000000  0.000000  -32.13061714671163  4.339215381002572  -28.934952987682063  32.79710632164994  48.92955627111826  69.43892140997997  65.15839280714442  33.24624312783783  -51.33639854768192  25.21768577988852  0.000000
0.16  0.000000  0.000000  0.000000  -36.94183842899494  10.70247235214553  -20.049991343180345  40.87990086862144  28.411812164424315  66.06059545453466  76.2906768647951  35.54999072129833  -69.21677185745217  22.488977138686288  0.000000
0.2  0.000000  0.000000  0.000000  -35.88146457608309  16.933456036216903  32.1796248414547  69.02252050284068  13.826471669236708  35.49521393761284  80.46061954859736  32.92862427408487  -93.62890415397798  16.73161479717103  0.000000
0.24  0.000000  0.000000  0.000000  -29.18329793981705  26.78869940867419  70.34083217947027  61.18440438096615  10.8666298464691  -6.670668127723787  86.54024197230353  51.06585038457882  -94.67638660205945  22.470015529438452  0.000000
0.28  0.000000  0.000000  0.000000  -36.38449735329683  22.532640034032692  50.21034401235549  49.71859530834662  -13.331287405290858  -13.344447384857187  79.04142301304739  73.9428752225616  -70.02864540056154  28.743811034247415  0.000000
0.32  0.000000  0.000000  0.000000  -40.69175612933248  8.95032044583029  26.02331029855835  53.821686923351606  -10.642670669334066  -2.6417439296971583  69.41812323182496  73.14905598350009  -56.23923576711353  25.60912055633401  0.000000
0.36  0.000000  0.000000  0.000000  -32.8301326613338  6.776554393829542  15.569043356464043  51.09469640062533  11.643984652604285  -5.323371786169646  64.62672234451745  66.49830642282267  -51.76518856120407  25.45622696506396  0.000000
0.4  0.000000  0.000000  0.000000  -29.643916730047742  7.952680827966201  11.164661692079354  52.55782733067105  14.14347765277892  -3.6972456670417184  57.345882723475846  64.8198757922417  -46.60478798035411  24.91209668502454  0.000000
0.44  0.000000  0.000000  0.000000  -30.60535150094487  5.75776557778853  10.32431338310006  56.301640356537796  8.466769650556058  0.8911509580630037  50.77456200354351  65.41661760393826  -41.414555467938314  24.82768992358848  0.000000
0.48  0.000000  0.000000  0.000000  -30.18139613456078  5.778471873994705  10.17004956317191  58.29349169645688  9.966382457834817  0.6262170413211776  48.968064359969254  66.53300444502486  -40.223043060480435  24.92028974629113  0.000000
0.52  0.000000  0.000000  0.000000  -29.89980213588555  7.915916590676352  10.554609944577443  56.79702373288239  15.395511503023014  -0.33146008070142535  52.140374878161644  66.32143717240568  -40.82717145646605  25.255793258714426  0.000000
0.56  0.000000  0.000000  0.000000  -29.87782729694147  9.002150159070904  10.103564000213293  55.769264207471444  16.268485198293902  0.10918171111334775  53.120378691950286  68.79956845883521  -40.56129661881093  25.754777382224123  0.000000
0.6  0.000000  0.000000  0.000000  -30.200075130468882  9.050867670626632  10.0329320848866  56.534249357667974  14.897758301844485  1.1377524661945724  52.28385726034813  71.63053656254426  -39.687086208590536  25.71715220560192  0.000000
0.64  0.000000  0.000000  0.000000  -30.35542099094045  9.286615714859538  10.18134529347713  57.1139721874707  15.769144704206264  1.3231410567496196  52.58460003202568  73.61532603451839  -39.663558932504145  25.371626715830352  0.000000
0.68  0.000000  0.000000  0.000000  -30.50652784894078  10.169265587787939  10.328666790887823  56.70450338570099  17.388274176568554  1.5376145885007968  54.137678757350166  75.22401071252573  -39.8685297288525  25.051540098407997  0.000000
0.72  0.000000  0.000000  0.000000  -30.76471594218146  10.721005575237976  10.364670355583018  56.592660742312184  18.068104690671188  1.9606115329371385  55.42859445965242  77.12542437734794  -39.84327892942416  24.694358342124204  0.000000
0.76  0.000000  0.000000  0.000000  -31.013348522797607  10.970596512990042  10.356670930086416  56.8744717449303  18.266831926900334  2.4208124072111055  56.52508178546444  79.03627418368134  -39.84111136125059  24.141723221374082  0.000000
0.8  0.000000  0.000000  0.000000  -31.140844131411964  11.27860605883169  10.388384405569099  57.03665852830816  18.85487870238484  2.7228452707553057  57.791822734611905  80.63266776934582  -39.998862116241156  23.528268488747436  0.000000
0.84  0.000000  0.000000  0.000000  -31.189534091898445  11.705004506646041  10.348447956218202  57.00235768861214  19.5018451517447  3.0533775304033246  59.208071367533805  82.00753736725807  -40.22679497484151  22.93837873542186  0.000000
0.88  0.000000  0.000000  0.000000  -31.12275136771813  12.085114463164556  10.223776498155328  56.9995679723852  19.95683370230111  3.3991803696138363  60.458499045293934  83.24933169355538  -40.35953925705171  22.3453983434481  0.000000
0.92  0.000000  0.000000  0.000000  -31.001191413126072  12.40529056213411  10.026649666563369  57.03377963914665  20.36775782745211  3.7121720084109544  61.55455561961338  84.28950407244949  -40.48682167078451  21.758951982552116  0.000000
0.96  0.000000  0.000000  0.000000  -30.831419790914964  12.626146407105868  9.820134405004564  57.05138237191398  20.707978405363125  3.9574401837433357  62.45774461970539  85.13415285396842  -40.378051708769895  21.151330708938037  0.000000
1.0  0.000000  0.000000  0.000000  -30.654549720590882  12.76077913447747  9.580246464163404  57.09617741569379  20.854327198277044  4.123612844247652  63.118742521096074  85.84144844968455  -40.10082931621815  20.551167654539142  0.000000
1.04  0.000000  0.000000  0.000000  -30.494656724459862  12.940700704984806  9.414452877872874  56.99991346094202  21.003389140622804  4.287007141917126  63.608387731924225  86.23805558473194  -39.750338814380335  19.996406212438398  0.000000
1.08  0.000000  0.000000  0.000000  -30.306051333110343  13.131001391836843  9.382030200771926  56.70009071699172  21.393368278835773  4.198430873773881  63.949673911506295  86.34924777844935  -39.57194266249807  19.55314097989744  0.000000
1.12  0.000000  0.000000  0.000000  -30.156701584834067  12.96153192393069  9.311898322388647  56.618936480365406  21.302329191690465  4.025626783471429  63.9466027927859  86.31556637217922  -39.105866488805674  19.168979930207463  0.000000
1.16  0.000000  0.000000  0.000000  -30.067443101868328  12.551799412691805  9.041231744688341  56.980809978698524  20.50263854979869  3.9493951374981746  63.415791659107185  86.1720876457096  -38.622207515121055  18.96569567370288  0.000000
1.2  0.000000  0.000000  0.000000  -30.083300179293282  12.53437794618171  9.040003505870088  56.94042232050189  20.26063754659193  4.021489650653421  63.04687689088414  85.31943161965965  -38.83525950042411  18.98559255541397  0.000000
1.24  0.000000  0.000000  0.000000  -30.02170170022838  12.746263338619631  9.320423608281667  56.36709524001132  20.97887304032216  3.6138537131016633  62.93706818315648  84.08520983105969  -39.6718430128974  19.111623757494378  0.000000
1.28  0.000000  0.000000  0.000000  -30.05835517449099  12.267195587807176  9.36781533655497  56.3489209061701  20.551196518649892  3.2890701809178626  62.41198445280617  82.96178905779806  -39.8901428095843  19.226538619000195  0.000000
1.32  0.000000  0.000000  0.000000  -30.17004650022363  11.342779376983852  8.987990038140888  57.152429998112375  18.79676040453265  3.231536803822396  61.120835481667214  82.04606570981097  -40.0005811851258  19.45339466772019  0.000000
1.36  0.000000  0.000000  0.000000  -30.476023910592343  10.883376871914445  9.184819595561288  57.27677228541122  18.30476980786804  3.1971597978236237  60.71700192817584  80.12883746325262  -41.21690601775321  19.753611342279523  0.000000
1.4000000000000001  0.000000  0.000000  0.000000  -30.69606250037276  10.805678163787357  9.53617140725838  56.83456785126399  18.967190773797693  2.5110212578377578  60.950331891711734  78.05524976357145  -43.30980263779657  20.10527987685951  0.000000
1.44  0.000000  0.000000  0.000000  -31.111550678426852  10.235819873565058  9.78407655244371  56.66741339131911  18.330152712011074  2.294833508286415  61.07229210302031  75.98565755849965  -45.05321488449647  20.567890341710363  0.000000
1.48  0.000000  0.000000  0.000000  -31.479030082504732  9.300394114811247  9.746859233436261  57.15765325926551  16.883880154927645  2.0059723088149437  60.51747992979222  74.24772513966124  -46.924112897997986  21.13876705266806  0.000000
1.52  0.000000  0.000000  0.000000  -31.885179840108844  8.47943419923446  10.10014870454444  57.28719166684124  16.176184602727513  1.74272004386037  60.61809018386742  71.84831976057636  -49.01435546329055  21.741239952718562  0.000000
1.56  0.000000  0.000000  0.000000  -32.17453374807672  7.775572382041039  10.09098332071231  57.394698270352016  15.525670224098418  1.2764750998639203  60.64073271251331  70.06530478490102  -51.27790285029681  22.400186784716304  0.000000
1.6  0.000000  0.000000  0.000000  -31.958904284890835  7.301341557920708  10.323512557101635  57.282623724731394  14.84891987596109  0.9933422142384919  60.29512370550843  68.17720085077775  -53.006712480490684  23.25531258409808  0.000000
